<svg width="55" height="49" viewBox="0 0 55 49" fill="none" xmlns="http://www.w3.org/2000/svg">
<path d="M54.5986 23.4357C54.4752 23.2953 51.5195 19.9592 46.7329 16.5938C33.987 7.63198 21.5245 7.27244 8.26723 16.5938C3.48073 19.9592 0.525012 23.2953 0.401584 23.4357C-0.133699 24.0442 -0.133699 24.9556 0.401584 25.5641C0.525012 25.7045 3.48073 29.0406 8.26734 32.406C21.0132 41.3678 33.4757 41.7274 46.733 32.406C51.5196 29.0406 54.4752 25.7044 54.5987 25.5641C55.1339 24.9556 55.1339 24.0442 54.5986 23.4357ZM39.2033 24.4999C39.2033 30.9186 33.9102 36.0647 27.5001 36.0647C21.0794 36.0647 15.797 30.9078 15.797 24.4999C15.797 18.0812 21.0901 12.9351 27.5001 12.9351C33.9208 12.9351 39.2033 18.092 39.2033 24.4999ZM3.83994 24.4999C7.02092 21.3211 11.0011 18.2967 15.1649 16.1833C11.7427 21.1496 11.6764 27.7539 15.1649 32.8165C10.9803 30.6926 7.00191 27.6594 3.83994 24.4999ZM39.8352 32.8165C43.2574 27.8502 43.3237 21.2459 39.8352 16.1833C44.0198 18.3072 47.9982 21.3404 51.1601 24.4999C47.9859 27.6716 44.0073 30.6989 39.8352 32.8165Z" fill="#242365"/>
<path d="M27.5 6.66797C28.3899 6.66797 29.1114 5.94652 29.1114 5.05664V1.83398C29.1114 0.944102 28.3899 0.222656 27.5 0.222656C26.6101 0.222656 25.8887 0.944102 25.8887 1.83398V5.05664C25.8887 5.94652 26.6101 6.66797 27.5 6.66797Z" fill="#242365"/>
<path d="M38.0274 9.48872C38.7947 9.93183 39.7816 9.67316 40.2285 8.89897L41.8398 6.10815C42.2848 5.33751 42.0208 4.35191 41.25 3.90708C40.4794 3.46192 39.4938 3.72597 39.049 4.49682L37.4376 7.28764C36.9926 8.05829 37.2566 9.04378 38.0274 9.48872Z" fill="#242365"/>
<path d="M27.5 42.2246C26.6101 42.2246 25.8887 42.9461 25.8887 43.8359V47.166C25.8887 48.0559 26.6101 48.7773 27.5 48.7773C28.3899 48.7773 29.1114 48.0559 29.1114 47.166V43.8359C29.1114 42.9461 28.3899 42.2246 27.5 42.2246Z" fill="#242365"/>
<path d="M40.1748 40.008C39.7297 39.2372 38.7443 38.9731 37.9737 39.4182C37.2029 39.8632 36.9389 40.8485 37.3839 41.6193L39.049 44.5033C39.4953 45.2764 40.4817 45.5368 41.25 45.093C42.0208 44.6481 42.2848 43.6627 41.8398 42.8919L40.1748 40.008Z" fill="#242365"/>
<path d="M14.7716 8.89904C15.218 9.67216 16.2043 9.93255 16.9727 9.48879C17.7435 9.04385 18.0075 8.05836 17.5625 7.28772L15.9511 4.4969C15.5061 3.72604 14.5207 3.4621 13.75 3.90715C12.9793 4.35209 12.7153 5.33758 13.1603 6.10823L14.7716 8.89904Z" fill="#242365"/>
<path d="M17.0264 39.4182C16.2558 38.973 15.2702 39.2374 14.8253 40.008L13.1603 42.8919C12.7153 43.6627 12.9793 44.6482 13.75 45.093C14.5177 45.5363 15.5044 45.277 15.9511 44.5033L17.6162 41.6193C18.0612 40.8487 17.7972 39.8632 17.0264 39.4182Z" fill="#242365"/>
<path d="M16.5 24.7368H22.4433L23.8042 21.1579L25.8454 30L28.3402 18L30.8351 24.7368L31.9691 22.6316L32.8763 24.7368H38.5" stroke="#242365" stroke-width="2"/>
</svg>
