<svg width="48" height="48" viewBox="0 0 48 48" fill="none" xmlns="http://www.w3.org/2000/svg">
<path d="M24.0782 16.7436C24.3955 16.7436 24.6997 16.6176 24.924 16.3933C25.1483 16.169 25.2743 15.8648 25.2743 15.5475C25.2743 15.2303 25.1483 14.9261 24.924 14.7018C24.6997 14.4775 24.3955 14.3514 24.0782 14.3514C22.1857 14.3514 20.3357 14.9126 18.7621 15.9641C17.1886 17.0155 15.9621 18.5099 15.2379 20.2584C14.5137 22.0068 14.3242 23.9308 14.6934 25.7869C15.0626 27.6431 15.9739 29.348 17.3121 30.6862C18.6503 32.0244 20.3553 32.9358 22.2115 33.305C24.0676 33.6742 25.9916 33.4847 27.74 32.7605C29.4885 32.0362 30.9829 30.8098 32.0343 29.2362C33.0857 27.6627 33.6469 25.8127 33.6469 23.9201C33.6469 23.6029 33.5209 23.2987 33.2966 23.0744C33.0723 22.8501 32.7681 22.7241 32.4508 22.7241C32.1336 22.7241 31.8294 22.8501 31.6051 23.0744C31.3808 23.2987 31.2548 23.6029 31.2548 23.9201C31.2548 25.3395 30.8339 26.727 30.0453 27.9072C29.2567 29.0874 28.1359 30.0072 26.8246 30.5504C25.5132 31.0936 24.0703 31.2357 22.6782 30.9588C21.286 30.6819 20.0073 29.9984 19.0037 28.9947C18 27.9911 17.3165 26.7123 17.0396 25.3202C16.7627 23.9281 16.9048 22.4851 17.448 21.1738C17.9912 19.8625 18.911 18.7416 20.0912 17.9531C21.2713 17.1645 22.6588 16.7436 24.0782 16.7436Z" fill="#242365"/>
<path d="M46.8996 16.8161C46.8016 16.517 46.5898 16.2686 46.31 16.1246C46.0302 15.9805 45.705 15.9524 45.4047 16.0464C45.1043 16.1404 44.8531 16.3489 44.7053 16.6267C44.5575 16.9045 44.5251 17.2294 44.6151 17.5309C46.0628 22.1446 45.9214 27.1106 44.2133 31.6344C42.5053 36.1582 39.3295 39.9785 35.1938 42.4841C31.0581 44.9897 26.2015 46.0359 21.401 45.4553C16.6005 44.8746 12.1334 42.7008 8.71426 39.2814C5.29517 35.8621 3.12166 31.3948 2.54141 26.5943C1.96116 21.7937 3.00771 16.9372 5.51364 12.8017C8.01957 8.66619 11.8401 5.49061 16.364 3.78294C20.888 2.07528 25.8539 1.9342 30.4675 3.38229C30.6183 3.43285 30.7777 3.45281 30.9364 3.44101C31.095 3.42922 31.2497 3.38589 31.3914 3.31358C31.5331 3.24126 31.6589 3.14141 31.7616 3.01986C31.8642 2.89832 31.9415 2.75752 31.9891 2.60571C32.0366 2.45391 32.0534 2.29414 32.0385 2.13577C32.0235 1.97739 31.9771 1.8236 31.902 1.68337C31.8269 1.54315 31.7245 1.41933 31.6009 1.31914C31.4774 1.21895 31.3351 1.14442 31.1823 1.09991C26.0586 -0.507095 20.5439 -0.349345 15.5204 1.54793C10.4968 3.4452 6.25473 6.97238 3.47253 11.5653C0.690339 16.1582 -0.471179 21.5515 0.173765 26.8825C0.818709 32.2135 3.23285 37.1742 7.03005 40.9711C10.8272 44.7681 15.7881 47.1819 21.1191 47.8264C26.4502 48.471 31.8434 47.3091 36.4361 44.5266C41.0288 41.7441 44.5557 37.5018 46.4527 32.4781C48.3496 27.4544 48.507 21.9397 46.8996 16.8161Z" fill="#242365"/>
<path d="M26.3559 8.53679C26.3587 8.20866 26.2368 7.89171 26.0147 7.65012C25.7926 7.40854 25.487 7.26037 25.1598 7.23563C24.8024 7.20405 24.445 7.17487 24.0782 7.17487C20.7663 7.17487 17.5288 8.15696 14.775 9.99695C12.0213 11.8369 9.87502 14.4522 8.60761 17.512C7.3402 20.5718 7.00859 23.9387 7.65471 27.1869C8.30083 30.4352 9.89566 33.4189 12.2375 35.7608C14.5794 38.1026 17.5631 39.6975 20.8114 40.3436C24.0596 40.9897 27.4265 40.6581 30.4863 39.3907C33.5461 38.1233 36.1613 35.977 38.0013 33.2232C39.8413 30.4695 40.8234 27.232 40.8234 23.9201C40.8234 23.4875 40.7969 23.0553 40.744 22.6259C40.7291 22.4595 40.6798 22.2981 40.5992 22.1518C40.5187 22.0056 40.4085 21.8777 40.2759 21.7762C40.1433 21.6747 39.991 21.602 39.8287 21.5625C39.6665 21.523 39.4978 21.5176 39.3333 21.5468C39.1689 21.576 39.0123 21.639 38.8736 21.7319C38.7348 21.8248 38.6168 21.9455 38.5272 22.0864C38.4375 22.2273 38.3781 22.3853 38.3528 22.5503C38.3274 22.7154 38.3366 22.8839 38.3799 23.0452C38.4055 23.3349 38.4312 23.6234 38.4312 23.9201C38.4312 26.7589 37.5894 29.5339 36.0123 31.8942C34.4352 34.2546 32.1935 36.0942 29.5709 37.1806C26.9482 38.2669 24.0623 38.5512 21.278 37.9974C18.4938 37.4435 15.9364 36.0765 13.929 34.0692C11.9217 32.0619 10.5547 29.5045 10.0009 26.7202C9.4471 23.936 9.73134 21.0501 10.8177 18.4274C11.904 15.8047 13.7437 13.5631 16.1041 11.986C18.4644 10.4088 21.2394 9.56704 24.0782 9.56704C24.3749 9.56704 24.6622 9.59389 24.9519 9.61841L25.1761 9.63827C25.3263 9.64481 25.4762 9.62136 25.6171 9.5693C25.7581 9.51724 25.8873 9.43761 25.9971 9.33506C26.107 9.23251 26.1953 9.1091 26.2569 8.97204C26.3185 8.83498 26.3521 8.68701 26.3559 8.53679Z" fill="#242365"/>
<path d="M31.2548 10.7631V15.0522L23.2326 23.0744C23.1192 23.1849 23.0289 23.3169 22.9669 23.4626C22.9049 23.6083 22.8725 23.7649 22.8715 23.9232C22.8705 24.0816 22.9009 24.2385 22.9611 24.385C23.0212 24.5315 23.1098 24.6646 23.2218 24.7766C23.3338 24.8885 23.4668 24.9771 23.6133 25.0373C23.7598 25.0974 23.9168 25.1279 24.0751 25.1269C24.2335 25.1259 24.39 25.0934 24.5358 25.0314C24.6815 24.9694 24.8134 24.8791 24.924 24.7658L32.9461 16.7435H37.2352C37.3923 16.7436 37.5478 16.7126 37.693 16.6525C37.8381 16.5924 37.9699 16.5043 38.0809 16.3932L45.2575 9.21662C45.4247 9.04935 45.5386 8.83624 45.5847 8.60424C45.6309 8.37224 45.6072 8.13176 45.5167 7.91322C45.4262 7.69468 45.2729 7.50789 45.0762 7.37646C44.8795 7.24503 44.6483 7.17487 44.4118 7.17484H40.8235V3.58658C40.8235 3.35003 40.7533 3.11881 40.6219 2.92214C40.4904 2.72547 40.3037 2.57218 40.0851 2.48166C39.8666 2.39115 39.6261 2.36746 39.3941 2.4136C39.1621 2.45974 38.949 2.57364 38.7817 2.74088L31.6052 9.91741C31.4941 10.0284 31.4059 10.1603 31.3458 10.3054C31.2857 10.4505 31.2548 10.606 31.2548 10.7631ZM33.647 11.2583L38.4313 6.47399V8.37093C38.4312 8.52803 38.4621 8.68361 38.5222 8.82876C38.5822 8.97392 38.6704 9.10582 38.7814 9.2169C38.8925 9.32799 39.0244 9.41609 39.1696 9.47616C39.3147 9.53624 39.4703 9.56711 39.6274 9.56702H41.5243L36.74 14.3514H33.647V11.2583Z" fill="#242365"/>
</svg>
